<svg xmlns="http://www.w3.org/2000/svg" xml:space="preserve" width="2048" height="2048" style="shape-rendering:geometricPrecision;text-rendering:geometricPrecision;image-rendering:optimizeQuality;fill-rule:evenodd;clip-rule:evenodd"><defs><clipPath id="id0"><path d="M1024 0c565.541 0 1024 458.459 1024 1024 0 565.541-458.459 1024-1024 1024C458.459 2048 0 1589.541 0 1024 0 458.459 458.459 0 1024 0z"/></clipPath><style>.fil5{fill:#c2c4c4}.fil1{fill:#512da8}</style></defs><g id="Layer_x0020_1"><path d="M1024 0c565.541 0 1024 458.459 1024 1024 0 565.541-458.459 1024-1024 1024C458.459 2048 0 1589.541 0 1024 0 458.459 458.459 0 1024 0z" style="fill:#7e57c2"/><g style="clip-path:url(#id0)"><g id="_308712616"><path id="_3039318561" class="fil1" d="M1452.69 463.999 2588.57 1599.88v1120L1452.69 1584z"/><path id="_303931520" class="fil1" d="m1452.69 1584 1135.88 1135.88H1731.2L595.314 1584z"/><path id="_308712256" class="fil1" d="M1452.69 463.999V1584H595.314V463.999z"/></g></g><path d="M1024 0c565.541 0 1024 458.459 1024 1024 0 565.541-458.459 1024-1024 1024C458.459 2048 0 1589.541 0 1024 0 458.459 458.459 0 1024 0z" style="fill:none"/><path style="fill:#e53935" d="M1452.69 1584H595.314V464h857.376z"/><path style="fill:#fefefe" d="M1413.01 1535.05H634.993V512.951h778.017z"/><path class="fil5" d="M1340.55 1260.52H955.331v-38h385.219zM1340.55 1318.45H955.331v-38.01h385.219zM1340.55 1376.37H955.331v-38.01h385.219zM1340.55 1434.3H955.331v-38.01h385.219z"/><path style="fill:#fbc02d" d="M707.448 1221.4v214.01h214.003V1221.4z"/><path class="fil5" d="M1337.69 650.591H710.311v-38.002h627.379zM1337.69 715.08H710.311v-38.002h627.379zM1337.69 780.149H710.311v-38.002h627.379z"/><path style="fill:#26a69a" d="M1051.41 820.051v340.589h286.28V820.051z"/><path class="fil1" d="M710.311 820.051v340.589h286.278V820.051z"/></g></svg>
